<?xml version='1.0' encoding='utf-8'?>
<svg xmlns="http://www.w3.org/2000/svg" viewBox="0 0 1280 720" data-pptx-page-role="content" font-family="Microsoft YaHei, Arial, sans-serif"><rect x="0" y="0" width="1280" height="720" fill="#F7F6F2" stroke="none" stroke-width="1" rx="0" /><text x="64" y="44" font-size="14px" font-weight="700" fill="#1F6EA8" text-anchor="start">04 / 设计</text><text x="1180" y="44" font-size="14px" font-weight="700" fill="#6E7476" text-anchor="end">05</text><line x1="64" y1="62" x2="1216" y2="62" stroke="#D4D7D8" stroke-width="1" /><text x="64" y="122" font-size="54px" font-weight="800" fill="#171717" text-anchor="start">先设计界面，再开始实现</text><text x="70" y="180" font-size="28px" font-weight="700" fill="#171717" text-anchor="start">可以先构思界面，再让不同的设计 Skill 给出视觉参考。</text><text x="70" y="222" font-size="22px" font-weight="400" fill="#6E7476" text-anchor="start">效果会不同，但目的都是减少试错。</text><line x1="70" y1="270" x2="1210" y2="270" stroke="#D4D7D8" stroke-width="1" /><rect x="70" y="304" width="260" height="300" fill="#FFFFFF" stroke="#D4D7D8" stroke-width="1" rx="10" /><image id="taste-skill" href="../images/taste-skill-example.png" x="82" y="316" width="236" height="252" preserveAspectRatio="xMidYMid meet" /><text x="200" y="594" font-size="18px" font-weight="700" fill="#171717" text-anchor="middle">taste-skill</text><rect x="360" y="304" width="260" height="300" fill="#FFFFFF" stroke="#D4D7D8" stroke-width="1" rx="10" /><image id="ui-ux" href="../images/ui-ux-pro-max-example.png" x="372" y="316" width="236" height="252" preserveAspectRatio="xMidYMid meet" /><text x="490" y="594" font-size="18px" font-weight="700" fill="#171717" text-anchor="middle">UI-UX-PRO-MAX</text><rect x="650" y="304" width="260" height="300" fill="#FFFFFF" stroke="#D4D7D8" stroke-width="1" rx="10" /><image id="frontend-design" href="../images/frontend-design-example.png" x="662" y="316" width="236" height="252" preserveAspectRatio="xMidYMid meet" /><text x="780" y="594" font-size="18px" font-weight="700" fill="#171717" text-anchor="middle">frontend-design</text><rect x="940" y="304" width="270" height="300" fill="#EEF1F2" stroke="#D4D7D8" stroke-width="1" rx="10" /><image id="skill-comparison" href="../images/skill-comparison.png" x="952" y="316" width="246" height="252" preserveAspectRatio="xMidYMid meet" /><text x="1075" y="594" font-size="18px" font-weight="700" fill="#171717" text-anchor="middle">不同审美方向</text></svg>
